<svg width="30" height="34" viewBox="0 0 30 34" fill="none" xmlns="http://www.w3.org/2000/svg">
<path d="M16.667 20.0001H24.4448V27.7779H16.667V20.0001Z" fill="#7A7A7A"/>
<path d="M23.0833 3.33333V3.58333H23.3333H26.6667C28.3669 3.58333 29.75 4.9664 29.75 6.66667V30C29.75 31.7003 28.3669 33.0833 26.6667 33.0833H3.33333C1.63307 33.0833 0.25 31.7003 0.25 30V6.66667C0.25 4.9664 1.63307 3.58333 3.33333 3.58333H6.66667H6.91667V3.33333V0.25H9.75V3.33333V3.58333H10H20H20.25V3.33333V0.25H23.0833V3.33333ZM26.6683 30.25H26.9184L26.9183 30L26.9167 9.99998L26.9166 9.75H26.6667H3.33333H3.08333V10V30V30.25H3.33333H26.6683Z" fill="#7A7A7A" stroke="white" stroke-width="0.5"/>
</svg>
