<svg width="16" height="16" viewBox="0 0 16 16" fill="none" xmlns="http://www.w3.org/2000/svg">
<path d="M15.1788 0.924879C14.9053 0.637253 14.577 0.407268 14.2132 0.24847C13.8494 0.0896717 13.4576 0.00527124 13.0607 0.000239118C12.6638 -0.004793 12.2699 0.069645 11.9022 0.219169C11.5346 0.368693 11.2005 0.59028 10.9198 0.870879L1.5448 10.2459C1.21691 10.5737 0.989334 10.9883 0.888799 11.4409L0.0117991 15.3909C-0.0063636 15.473 -0.00351947 15.5584 0.0200681 15.6391C0.0436557 15.7198 0.0872248 15.7933 0.146743 15.8527C0.206262 15.9121 0.279806 15.9556 0.360572 15.979C0.441337 16.0025 0.526713 16.0052 0.608799 15.9869L4.5348 15.1139C5.00224 15.0098 5.43031 14.7746 5.7688 14.4359L15.1268 5.07788C15.6753 4.52912 15.9877 3.78778 15.9975 3.01195C16.0072 2.23613 15.7134 1.4872 15.1788 0.924879ZM11.6268 1.57888C11.9995 1.22079 12.4978 1.0231 13.0147 1.02824C13.5315 1.03337 14.0258 1.24093 14.3913 1.60635C14.7569 1.97178 14.9646 2.46595 14.9699 2.98281C14.9753 3.49966 14.7778 3.998 14.4198 4.37088L13.7488 5.04188L10.9558 2.24988L11.6268 1.57888ZM10.2488 2.95688L13.0418 5.74988L5.0618 13.7299C4.85762 13.9338 4.59954 14.0754 4.3178 14.1379L1.1578 14.8399L1.8658 11.6579C1.9247 11.3907 2.05901 11.146 2.2528 10.9529L10.2488 2.95688Z" fill="white"/>
</svg>
