<svg width="26" height="32" viewBox="0 0 26 32" fill="none" xmlns="http://www.w3.org/2000/svg">
<path d="M13 17.5C15.4853 17.5 17.5 15.4853 17.5 13C17.5 10.5147 15.4853 8.5 13 8.5C10.5147 8.5 8.5 10.5147 8.5 13C8.5 15.4853 10.5147 17.5 13 17.5Z" stroke="#7A7A7A" stroke-width="2" stroke-linecap="round" stroke-linejoin="round"/>
<path d="M13 1C9.8174 1 6.76516 2.26428 4.51472 4.51472C2.26428 6.76516 1 9.8174 1 13C1 15.838 1.603 17.695 3.25 19.75L13 31L22.75 19.75C24.397 17.695 25 15.838 25 13C25 9.8174 23.7357 6.76516 21.4853 4.51472C19.2348 2.26428 16.1826 1 13 1V1Z" stroke="#7A7A7A" stroke-width="2" stroke-linecap="round" stroke-linejoin="round"/>
</svg>
