<svg width="30" height="22" viewBox="0 0 30 22" fill="none" xmlns="http://www.w3.org/2000/svg">
<path d="M27.8571 0H2.14286C1.57454 0 1.02949 0.225765 0.627628 0.627628C0.225765 1.02949 0 1.57454 0 2.14286V19.2857C0 19.854 0.225765 20.3991 0.627628 20.8009C1.02949 21.2028 1.57454 21.4286 2.14286 21.4286H27.8571C28.4255 21.4286 28.9705 21.2028 29.3724 20.8009C29.7742 20.3991 30 19.854 30 19.2857V2.14286C30 1.57454 29.7742 1.02949 29.3724 0.627628C28.9705 0.225765 28.4255 0 27.8571 0ZM25.5 2.14286L15 9.40714L4.5 2.14286H25.5ZM2.14286 19.2857V3.11786L14.3893 11.5929C14.5686 11.7173 14.7817 11.784 15 11.784C15.2183 11.784 15.4314 11.7173 15.6107 11.5929L27.8571 3.11786V19.2857H2.14286Z" fill="#7A7A7A"/>
</svg>
