<svg width="31" height="30" viewBox="0 0 31 30" fill="none" xmlns="http://www.w3.org/2000/svg">
<path d="M26.5495 30H26.3533C3.68022 28.6962 0.46099 9.56539 0.0109902 3.72692C-0.0252692 3.27298 0.0284002 2.81634 0.168923 2.38317C0.309445 1.95 0.534059 1.54881 0.829895 1.2026C1.12573 0.856385 1.48697 0.571948 1.89293 0.365584C2.29888 0.15922 2.74156 0.0349867 3.19561 1.08184e-06H9.5533C10.0155 -0.000446338 10.4671 0.137897 10.8498 0.397111C11.2324 0.656325 11.5284 1.02447 11.6995 1.45385L13.4533 5.76923C13.6222 6.18871 13.6641 6.64855 13.5738 7.09164C13.4836 7.53473 13.2651 7.94155 12.9456 8.26154L10.4879 10.7423C10.8718 12.9239 11.9166 14.935 13.4809 16.5034C15.0452 18.0718 17.0535 19.1219 19.2341 19.5115L21.7379 17.0308C22.0627 16.7148 22.4734 16.5014 22.9186 16.4173C23.3639 16.3332 23.8241 16.382 24.2418 16.5577L28.5918 18.3C29.0147 18.4764 29.3755 18.7747 29.6282 19.1569C29.881 19.5391 30.0142 19.9879 30.011 20.4462V26.5385C30.011 27.4565 29.6463 28.337 28.9971 28.9861C28.348 29.6353 27.4675 30 26.5495 30ZM3.47253 2.30769C3.16651 2.30769 2.87302 2.42926 2.65664 2.64565C2.44025 2.86204 2.31868 3.15552 2.31868 3.46154V3.55385C2.84945 10.3846 6.2533 26.5385 26.4802 27.6923C26.6318 27.7017 26.7838 27.681 26.9273 27.6315C27.0709 27.5821 27.2033 27.5047 27.317 27.404C27.4306 27.3032 27.5232 27.181 27.5895 27.0443C27.6558 26.9077 27.6945 26.7593 27.7033 26.6077V20.4462L23.3533 18.7038L20.0418 21.9923L19.4879 21.9231C9.44945 20.6654 8.08791 10.6269 8.08791 10.5231L8.01868 9.96923L11.2956 6.65769L9.56484 2.30769H3.47253Z" fill="#7A7A7A"/>
</svg>
