<svg width="30" height="32" viewBox="0 0 30 32" fill="none" xmlns="http://www.w3.org/2000/svg">
<path d="M28.823 25.9147C28.0705 24.1322 26.9784 22.513 25.6076 21.1475C24.241 19.778 22.6221 18.6861 20.8404 17.9321C20.8244 17.9241 20.8085 17.9201 20.7925 17.9121C23.2779 16.1169 24.8936 13.1927 24.8936 9.89355C24.8936 4.42816 20.4654 0 15 0C9.53461 0 5.10645 4.42816 5.10645 9.89355C5.10645 13.1927 6.72213 16.1169 9.20749 17.9161C9.19153 17.9241 9.17557 17.9281 9.15961 17.9361C7.37239 18.69 5.76868 19.7711 4.39236 21.1515C3.02286 22.5181 1.93096 24.137 1.17695 25.9187C0.436223 27.6631 0.0367296 29.5332 9.97573e-05 31.428C-0.000965016 31.4706 0.00650313 31.5129 0.0220644 31.5526C0.0376256 31.5922 0.0609649 31.6283 0.0907071 31.6588C0.120449 31.6893 0.155993 31.7135 0.195243 31.7301C0.234493 31.7466 0.276656 31.7551 0.319247 31.7551H2.71285C2.88838 31.7551 3.02801 31.6155 3.03199 31.4439C3.11178 28.3642 4.34847 25.4799 6.53463 23.2937C8.79658 21.0318 11.8006 19.7871 15 19.7871C18.1994 19.7871 21.2034 21.0318 23.4654 23.2937C25.6515 25.4799 26.8882 28.3642 26.968 31.4439C26.972 31.6195 27.1116 31.7551 27.2872 31.7551H29.6808C29.7233 31.7551 29.7655 31.7466 29.8048 31.7301C29.844 31.7135 29.8796 31.6893 29.9093 31.6588C29.939 31.6283 29.9624 31.5922 29.9779 31.5526C29.9935 31.5129 30.001 31.4706 29.9999 31.428C29.96 29.5211 29.5651 27.666 28.823 25.9147ZM15 16.7552C13.1689 16.7552 11.4455 16.0411 10.149 14.7446C8.85243 13.4481 8.13834 11.7247 8.13834 9.89355C8.13834 8.06245 8.85243 6.33905 10.149 5.04252C11.4455 3.74599 13.1689 3.03189 15 3.03189C16.8311 3.03189 18.5545 3.74599 19.851 5.04252C21.1476 6.33905 21.8617 8.06245 21.8617 9.89355C21.8617 11.7247 21.1476 13.4481 19.851 14.7446C18.5545 16.0411 16.8311 16.7552 15 16.7552Z" fill="#7A7A7A"/>
</svg>
