<svg width="30" height="30" viewBox="0 0 30 30" fill="none" xmlns="http://www.w3.org/2000/svg">
<mask id="path-1-inside-1_156_42" fill="white">
<path d="M21.54 18C21.66 17.01 21.75 16.02 21.75 15C21.75 13.98 21.66 12.99 21.54 12H26.61C26.85 12.96 27 13.965 27 15C27 16.035 26.85 17.04 26.61 18M18.885 26.34C19.785 24.675 20.475 22.875 20.955 21H25.38C23.9268 23.5024 21.6212 25.398 18.885 26.34ZM18.51 18H11.49C11.34 17.01 11.25 16.02 11.25 15C11.25 13.98 11.34 12.975 11.49 12H18.51C18.645 12.975 18.75 13.98 18.75 15C18.75 16.02 18.645 17.01 18.51 18ZM15 26.94C13.755 25.14 12.75 23.145 12.135 21H17.865C17.25 23.145 16.245 25.14 15 26.94ZM9 9H4.62C6.05828 6.49082 8.36219 4.59223 11.1 3.66C10.2 5.325 9.525 7.125 9 9ZM4.62 21H9C9.525 22.875 10.2 24.675 11.1 26.34C8.36794 25.3975 6.06727 23.5016 4.62 21ZM3.39 18C3.15 17.04 3 16.035 3 15C3 13.965 3.15 12.96 3.39 12H8.46C8.34 12.99 8.25 13.98 8.25 15C8.25 16.02 8.34 17.01 8.46 18M15 3.045C16.245 4.845 17.25 6.855 17.865 9H12.135C12.75 6.855 13.755 4.845 15 3.045ZM25.38 9H20.955C20.4855 7.14219 19.7904 5.34884 18.885 3.66C21.645 4.605 23.94 6.51 25.38 9ZM15 0C6.705 0 0 6.75 0 15C0 18.9782 1.58035 22.7936 4.3934 25.6066C5.78628 26.9995 7.43986 28.1044 9.25975 28.8582C11.0796 29.612 13.0302 30 15 30C18.9782 30 22.7936 28.4196 25.6066 25.6066C28.4196 22.7936 30 18.9782 30 15C30 13.0302 29.612 11.0796 28.8582 9.25975C28.1044 7.43986 26.9995 5.78628 25.6066 4.3934C24.2137 3.00052 22.5601 1.89563 20.7403 1.14181C18.9204 0.387987 16.9698 0 15 0Z"/>
</mask>
<path d="M21.54 18C21.66 17.01 21.75 16.02 21.75 15C21.75 13.98 21.66 12.99 21.54 12H26.61C26.85 12.96 27 13.965 27 15C27 16.035 26.85 17.04 26.61 18M18.885 26.34C19.785 24.675 20.475 22.875 20.955 21H25.38C23.9268 23.5024 21.6212 25.398 18.885 26.34ZM18.51 18H11.49C11.34 17.01 11.25 16.02 11.25 15C11.25 13.98 11.34 12.975 11.49 12H18.51C18.645 12.975 18.75 13.98 18.75 15C18.75 16.02 18.645 17.01 18.51 18ZM15 26.94C13.755 25.14 12.75 23.145 12.135 21H17.865C17.25 23.145 16.245 25.14 15 26.94ZM9 9H4.62C6.05828 6.49082 8.36219 4.59223 11.1 3.66C10.2 5.325 9.525 7.125 9 9ZM4.62 21H9C9.525 22.875 10.2 24.675 11.1 26.34C8.36794 25.3975 6.06727 23.5016 4.62 21ZM3.39 18C3.15 17.04 3 16.035 3 15C3 13.965 3.15 12.96 3.39 12H8.46C8.34 12.99 8.25 13.98 8.25 15C8.25 16.02 8.34 17.01 8.46 18M15 3.045C16.245 4.845 17.25 6.855 17.865 9H12.135C12.75 6.855 13.755 4.845 15 3.045ZM25.38 9H20.955C20.4855 7.14219 19.7904 5.34884 18.885 3.66C21.645 4.605 23.94 6.51 25.38 9ZM15 0C6.705 0 0 6.75 0 15C0 18.9782 1.58035 22.7936 4.3934 25.6066C5.78628 26.9995 7.43986 28.1044 9.25975 28.8582C11.0796 29.612 13.0302 30 15 30C18.9782 30 22.7936 28.4196 25.6066 25.6066C28.4196 22.7936 30 18.9782 30 15C30 13.0302 29.612 11.0796 28.8582 9.25975C28.1044 7.43986 26.9995 5.78628 25.6066 4.3934C24.2137 3.00052 22.5601 1.89563 20.7403 1.14181C18.9204 0.387987 16.9698 0 15 0Z" fill="#7A7A7A"/>
<path d="M21.54 12V11.5H20.9757L21.0436 12.0602L21.54 12ZM26.61 12L27.0951 11.8787L27.0004 11.5H26.61V12ZM20.955 21V20.5H20.5669L20.4706 20.876L20.955 21ZM25.38 21L25.8124 21.2511L26.2486 20.5H25.38V21ZM18.51 18V18.5H18.9464L19.0054 18.0676L18.51 18ZM11.49 18L10.9956 18.0749L11.0601 18.5H11.49V18ZM11.49 12V11.5H11.061L10.9958 11.924L11.49 12ZM18.51 12L19.0053 11.9314L18.9455 11.5H18.51V12ZM15 26.94L14.5888 27.2244L15 27.819L15.4112 27.2244L15 26.94ZM12.135 21V20.5H11.4715L11.6544 21.1378L12.135 21ZM17.865 21L18.3456 21.1378L18.5285 20.5H17.865V21ZM9 9V9.5H9.37923L9.48148 9.13482L9 9ZM4.62 9L4.18621 8.75135L3.75708 9.5H4.62V9ZM11.1 3.66L11.5399 3.89776L12.1465 2.77548L10.9388 3.18669L11.1 3.66ZM9 21L9.48148 20.8652L9.37923 20.5H9V21ZM11.1 26.34L10.9369 26.8127L12.1501 27.2312L11.5399 26.1022L11.1 26.34ZM3.39 12V11.5H2.99961L2.90493 11.8787L3.39 12ZM8.46 12L8.95637 12.0602L9.02427 11.5H8.46V12ZM17.865 9V9.5H18.5285L18.3456 8.8622L17.865 9ZM12.135 9L11.6544 8.8622L11.4715 9.5H12.135V9ZM25.38 9V9.5H26.2467L25.8128 8.74969L25.38 9ZM20.955 9L20.4702 9.1225L20.5656 9.5H20.955V9ZM18.885 3.66L19.047 3.18696L17.8431 2.77478L18.4443 3.89624L18.885 3.66ZM15 30V30.5V30ZM22.0364 18.0602C22.1575 17.0612 22.25 16.0487 22.25 15H21.25C21.25 15.9913 21.1625 16.9588 21.0436 17.9398L22.0364 18.0602ZM22.25 15C22.25 13.9513 22.1575 12.9388 22.0364 11.9398L21.0436 12.0602C21.1625 13.0412 21.25 14.0087 21.25 15H22.25ZM21.54 12.5H26.61V11.5H21.54V12.5ZM26.1249 12.1213C26.357 13.0495 26.5 14.0133 26.5 15H27.5C27.5 13.9167 27.343 12.8705 27.0951 11.8787L26.1249 12.1213ZM26.5 15C26.5 15.9867 26.357 16.9505 26.1249 17.8787L27.0951 18.1213C27.343 17.1295 27.5 16.0833 27.5 15H26.5ZM19.3249 26.5778C20.2456 24.8743 20.95 23.0358 21.4394 21.124L20.4706 20.876C20 22.7142 19.3244 24.4756 18.4451 26.1022L19.3249 26.5778ZM20.955 21.5H25.38V20.5H20.955V21.5ZM24.9476 20.7489C23.5547 23.1474 21.3448 24.9643 18.7222 25.8672L19.0478 26.8128C21.8975 25.8317 24.2988 23.8574 25.8124 21.2511L24.9476 20.7489ZM18.51 17.5H11.49V18.5H18.51V17.5ZM11.9844 17.9251C11.8373 16.9548 11.75 15.9903 11.75 15H10.75C10.75 16.0497 10.8427 17.0652 10.9956 18.0749L11.9844 17.9251ZM11.75 15C11.75 14.0092 11.8374 13.0299 11.9842 12.076L10.9958 11.924C10.8426 12.9201 10.75 13.9508 10.75 15H11.75ZM11.49 12.5H18.51V11.5H11.49V12.5ZM18.0147 12.0686C18.1483 13.0336 18.25 14.013 18.25 15H19.25C19.25 13.947 19.1417 12.9164 19.0053 11.9314L18.0147 12.0686ZM18.25 15C18.25 15.9867 18.1484 16.9509 18.0146 17.9324L19.0054 18.0676C19.1416 17.0691 19.25 16.0533 19.25 15H18.25ZM15.4112 26.6556C14.1926 24.8937 13.2135 22.9476 12.6156 20.8622L11.6544 21.1378C12.2865 23.3424 13.3174 25.3863 14.5888 27.2244L15.4112 26.6556ZM12.135 21.5H17.865V20.5H12.135V21.5ZM17.3844 20.8622C16.7865 22.9476 15.8074 24.8937 14.5888 26.6556L15.4112 27.2244C16.6826 25.3863 17.7135 23.3424 18.3456 21.1378L17.3844 20.8622ZM9 8.5H4.62V9.5H9V8.5ZM5.05379 9.24865C6.43156 6.84504 8.63854 5.02632 11.2612 4.13331L10.9388 3.18669C8.08584 4.15814 5.68501 6.13661 4.18621 8.75135L5.05379 9.24865ZM10.6601 3.42224C9.73842 5.12744 9.05092 6.96375 8.51852 8.86518L9.48148 9.13482C9.99908 7.28625 10.6616 5.52256 11.5399 3.89776L10.6601 3.42224ZM4.62 21.5H9V20.5H4.62V21.5ZM8.51852 21.1348C9.05092 23.0363 9.73842 24.8726 10.6601 26.5778L11.5399 26.1022C10.6616 24.4774 9.99908 22.7137 9.48148 20.8652L8.51852 21.1348ZM11.2631 25.8673C8.64472 24.9641 6.43982 23.1471 5.05279 20.7496L4.18721 21.2504C5.69472 23.8561 8.09115 25.8309 10.9369 26.8127L11.2631 25.8673ZM3.87507 17.8787C3.64302 16.9505 3.5 15.9867 3.5 15H2.5C2.5 16.0833 2.65698 17.1295 2.90493 18.1213L3.87507 17.8787ZM3.5 15C3.5 14.0133 3.64302 13.0495 3.87507 12.1213L2.90493 11.8787C2.65698 12.8705 2.5 13.9167 2.5 15H3.5ZM3.39 12.5H8.46V11.5H3.39V12.5ZM7.96363 11.9398C7.84254 12.9388 7.75 13.9513 7.75 15H8.75C8.75 14.0087 8.83746 13.0412 8.95637 12.0602L7.96363 11.9398ZM7.75 15C7.75 16.0487 7.84254 17.0612 7.96363 18.0602L8.95637 17.9398C8.83746 16.9588 8.75 15.9913 8.75 15H7.75ZM14.5888 3.32943C15.8068 5.09045 16.7862 7.0515 17.3844 9.1378L18.3456 8.8622C17.7138 6.6585 16.6832 4.59955 15.4112 2.76057L14.5888 3.32943ZM17.865 8.5H12.135V9.5H17.865V8.5ZM12.6156 9.1378C13.2138 7.0515 14.1932 5.09045 15.4112 3.32943L14.5888 2.76057C13.3168 4.59955 12.2862 6.6585 11.6544 8.8622L12.6156 9.1378ZM25.38 8.5H20.955V9.5H25.38V8.5ZM21.4398 8.8775C20.9603 6.98012 20.2503 5.14858 19.3257 3.42376L18.4443 3.89624C19.3304 5.54911 20.0108 7.30426 20.4702 9.1225L21.4398 8.8775ZM18.723 4.13304C21.368 5.03867 23.5672 6.8641 24.9472 9.25031L25.8128 8.74969C24.3128 6.1559 21.922 4.17133 19.047 3.18696L18.723 4.13304ZM15 -0.5C6.42788 -0.5 -0.5 6.47483 -0.5 15H0.5C0.5 7.02517 6.98212 0.5 15 0.5V-0.5ZM-0.5 15C-0.5 19.1109 1.13303 23.0533 4.03984 25.9602L4.74695 25.253C2.02767 22.5338 0.5 18.8456 0.5 15H-0.5ZM4.03984 25.9602C5.47915 27.3995 7.18786 28.5412 9.06841 29.3201L9.45109 28.3963C7.69187 27.6676 6.0934 26.5995 4.74695 25.253L4.03984 25.9602ZM9.06841 29.3201C10.949 30.0991 12.9645 30.5 15 30.5V29.5C13.0958 29.5 11.2103 29.1249 9.45109 28.3963L9.06841 29.3201ZM15 30.5C19.1109 30.5 23.0533 28.867 25.9602 25.9602L25.253 25.253C22.5338 27.9723 18.8456 29.5 15 29.5V30.5ZM25.9602 25.9602C28.867 23.0533 30.5 19.1109 30.5 15H29.5C29.5 18.8456 27.9723 22.5338 25.253 25.253L25.9602 25.9602ZM30.5 15C30.5 12.9645 30.0991 10.949 29.3201 9.06841L28.3963 9.45109C29.1249 11.2103 29.5 13.0958 29.5 15H30.5ZM29.3201 9.06841C28.5412 7.18786 27.3995 5.47915 25.9602 4.03984L25.253 4.74695C26.5995 6.0934 27.6676 7.69187 28.3963 9.45109L29.3201 9.06841ZM25.9602 4.03984C24.5208 2.60054 22.8121 1.45882 20.9316 0.679867L20.5489 1.60375C22.3081 2.33244 23.9066 3.4005 25.253 4.74695L25.9602 4.03984ZM20.9316 0.679867C19.051 -0.0990806 17.0355 -0.5 15 -0.5V0.5C16.9042 0.5 18.7897 0.875054 20.5489 1.60375L20.9316 0.679867Z" fill="white" mask="url(#path-1-inside-1_156_42)"/>
</svg>
